<?xml version="1.0" encoding="iso-8859-1"?>
<!-- Generator: Adobe Illustrator 18.1.1, SVG Export Plug-In . SVG Version: 6.00 Build 0)  -->
<svg version="1.1" id="Capa_1" xmlns="http://www.w3.org/2000/svg" xmlns:xlink="http://www.w3.org/1999/xlink" x="0px" y="0px"
	 viewBox="0 0 15.124 15.124" style="enable-background:new 0 0 15.124 15.124;" xml:space="preserve">
<g>
	<path style="fill:#030104;" d="M12.1,3.974c-0.009-0.004-0.019-0.015-0.028-0.024c-0.566-0.504-1.23-0.745-1.994-0.716
		l-0.023-0.051c0.004-0.005,0.009-0.005,0.014-0.005c0.693-0.152,0.928-0.131,1.05-0.3c0.042-0.137-0.01-0.212-0.16-0.231
		c-0.35,0.043-0.67,0.113-0.958,0.222c0.364-0.222,0.505-0.377,0.425-0.458c-0.319-0.195-0.767,0.15-0.805,0.127
		c-0.193,0.127-0.363,0.264-0.509,0.41C8.805,3.273,8.736,3.4,8.548,3.673L8.539,3.696c-0.486,0.75-1.002,1.503-1.205,2.273
		L7.259,6.026L7.245,6.04c-0.292-0.349-1.11-1.449-1.779-1.732c-0.733-0.36-2.5-0.684-3.249-0.914
		C2.213,4.191,2.622,4.827,3.439,5.289v0.014c-0.898-0.137-0.78-0.048-0.835,0.118c0.052,0.74,0.604,1.25,1.65,1.532L4.249,6.967
		c-0.41-0.023-1.142-0.083-1.014,0.397c0.344,0.641,0.952,0.947,1.834,0.924C4.894,8.374,4.758,8.466,4.668,8.571
		c-0.16,0.16-0.212,0.35-0.16,0.565c0.188,0.325,0.528,0.476,1.028,0.453l0,0l0.028,0.032C5.56,9.626,5.555,9.631,5.55,9.636
		c-0.863,0.849-1.905,1.23-3.127,1.15l-0.019,0.01C1.659,10.791,0.862,10.451,0,9.773c0.867,1.188,2.018,2.046,3.442,2.584
		c1.631,0.514,3.263,0.552,4.889,0.112h0.028c1.58-0.434,2.919-1.325,4.021-2.672c0.51-0.708,0.83-1.382,0.958-2.028
		c0.824,0.028,1.419-0.198,1.786-0.679l-0.009-0.015c-0.273,0.094-0.812,0.066-1.608-0.089V6.901c0-0.004,0-0.004,0.005,0
		c0.872-0.094,1.387-0.362,1.552-0.806c-0.608,0.227-1.208,0.231-1.802,0.02C13.155,5.331,12.77,4.619,12.1,3.974z"/>
</g>
<g>
</g>
<g>
</g>
<g>
</g>
<g>
</g>
<g>
</g>
<g>
</g>
<g>
</g>
<g>
</g>
<g>
</g>
<g>
</g>
<g>
</g>
<g>
</g>
<g>
</g>
<g>
</g>
<g>
</g>
</svg>
